<svg width="1000" height="600" xmlns="http://www.w3.org/2000/svg"><defs><linearGradient id="a" gradientTransform="rotate(90)"><stop offset="5%" stop-color="#f0e919"/><stop offset="95%" stop-color="#f3ee52"/></linearGradient><linearGradient id="b" gradientTransform="rotate(90)"><stop offset="5%" stop-color="#e3e533"/><stop offset="95%" stop-color="#eaeb66"/></linearGradient><linearGradient id="c" gradientTransform="rotate(90)"><stop offset="5%" stop-color="#d7e24c"/><stop offset="95%" stop-color="#e1e978"/></linearGradient><linearGradient id="d" gradientTransform="rotate(90)"><stop offset="5%" stop-color="#cbdf65"/><stop offset="95%" stop-color="#d8e78b"/></linearGradient><linearGradient id="e" gradientTransform="rotate(90)"><stop offset="5%" stop-color="#bedc7f"/><stop offset="95%" stop-color="#cee49f"/></linearGradient><linearGradient id="f" gradientTransform="rotate(90)"><stop offset="5%" stop-color="#b2d898"/><stop offset="95%" stop-color="#c5e1b1"/></linearGradient><linearGradient id="g" gradientTransform="rotate(90)"><stop offset="5%" stop-color="#a6d5b2"/><stop offset="95%" stop-color="#bcdfc5"/></linearGradient><linearGradient id="h" gradientTransform="rotate(90)"><stop offset="5%" stop-color="#99d2cb"/><stop offset="95%" stop-color="#b2ddd8"/></linearGradient><linearGradient id="i" gradientTransform="rotate(90)"><stop offset="5%" stop-color="#8dcfe4"/><stop offset="95%" stop-color="#a9dbea"/></linearGradient><linearGradient id="j" gradientTransform="rotate(90)"><stop offset="5%" stop-color="#8ccff2"/><stop offset="95%" stop-color="#a8dbf5"/></linearGradient><linearGradient id="k" gradientTransform="rotate(90)"><stop offset="5%" stop-color="#97d2f3"/><stop offset="95%" stop-color="#b1ddf6"/></linearGradient><linearGradient id="l" gradientTransform="rotate(90)"><stop offset="5%" stop-color="#a2d5f5"/><stop offset="95%" stop-color="#b9dff7"/></linearGradient><linearGradient id="m" gradientTransform="rotate(90)"><stop offset="5%" stop-color="#add9f6"/><stop offset="95%" stop-color="#c1e2f8"/></linearGradient><linearGradient id="n" gradientTransform="rotate(90)"><stop offset="5%" stop-color="#b8dcf8"/><stop offset="95%" stop-color="#c9e4f9"/></linearGradient><linearGradient id="o" gradientTransform="rotate(90)"><stop offset="5%" stop-color="#c3e0f9"/><stop offset="95%" stop-color="#d2e7fa"/></linearGradient><linearGradient id="p" gradientTransform="rotate(90)"><stop offset="5%" stop-color="#cee3fb"/><stop offset="95%" stop-color="#daeafc"/></linearGradient><linearGradient id="q" gradientTransform="rotate(90)"><stop offset="5%" stop-color="#d9e6fc"/><stop offset="95%" stop-color="#e2ecfc"/></linearGradient><linearGradient id="r" gradientTransform="rotate(90)"><stop offset="5%" stop-color="#e4eafe"/><stop offset="95%" stop-color="#eaeffe"/></linearGradient><linearGradient id="s" gradientTransform="rotate(90)"><stop offset="5%" stop-color="#efedff"/><stop offset="95%" stop-color="#f3f1ff"/></linearGradient></defs><path fill="#fcec00" d="M0 0h1000v600H0z"/><path d="M0 30c20.869-3.135 41.738-6.27 58-8 16.262-1.73 27.918-2.056 42 1s30.589 9.492 50 13c19.411 3.508 41.727 4.086 62 2 20.273-2.086 38.502-6.837 54-8 15.498-1.163 28.263 1.262 43 0 14.737-1.262 31.445-6.21 52-7s44.956 2.577 65 3c20.044.423 35.73-2.098 49 0 13.27 2.098 24.126 8.817 43 9 18.874.183 45.767-6.17 66-6 20.233.17 33.805 6.86 47 7 13.195.14 26.013-6.27 46-8 19.987-1.73 47.143 1.218 66 1 18.857-.218 29.415-3.603 46-5 16.585-1.397 39.198-.808 57 1s30.793 4.833 47 5c16.207.167 35.63-2.524 54-3 18.37-.476 35.685 1.262 93 3l-40 570H0Z" fill="url(#a)"/><path d="M0 60c19.887.399 39.774.797 56 2 16.226 1.203 28.791 3.21 45 4s36.06.366 55-1c18.94-1.366 36.967-3.674 56-3 19.033.674 39.073 4.33 54 6s24.742 1.355 41-1 38.958-6.751 58-9c19.042-2.249 34.425-2.35 51-2 16.575.35 34.343 1.153 54 0 19.657-1.153 41.204-4.26 61-4 19.796.26 37.84 3.89 53 6 15.16 2.11 27.435 2.703 43 5 15.565 2.297 34.42 6.297 52 4 17.58-2.297 33.887-10.892 50-13 16.113-2.108 32.033 2.27 52 7s43.98 9.814 64 7c20.02-2.814 36.044-13.527 53-17 16.956-3.473 34.845.293 52 3s33.578 4.353 90 6l-40 540H0Z" fill="url(#b)"/><path d="M0 90c13.542 1.386 27.084 2.773 46 2 18.916-.773 43.205-3.704 64-2 20.795 1.704 38.096 8.044 54 7 15.904-1.044 30.411-9.47 48-11 17.589-1.53 38.26 3.84 57 6 18.74 2.16 35.552 1.112 51-1s29.535-5.288 47-6c17.465-.712 38.31 1.038 57 5 18.69 3.962 35.226 10.135 53 8s36.786-12.578 52-12c15.214.578 26.63 12.178 43 12 16.37-.178 37.697-12.133 59-12 21.303.133 42.583 12.354 59 12 16.417-.354 27.97-13.284 45-17 17.03-3.716 39.539 1.78 60 6s38.876 7.162 53 9c14.124 1.838 23.956 2.572 40 0s38.298-8.45 58-10c19.702-1.55 36.85 1.225 94 4l-40 510H0Z" fill="url(#c)"/><path d="M0 120c14.418-2.733 28.837-5.465 45-5 16.163.465 34.071 4.128 54 4 19.929-.128 41.877-4.047 59-6 17.123-1.953 29.419-1.94 47 0s40.448 5.809 61 5c20.552-.809 38.789-6.295 55-6 16.211.295 30.398 6.371 46 8 15.602 1.629 32.621-1.19 51-3 18.379-1.81 38.117-2.61 57-1 18.883 1.61 36.91 5.63 53 6 16.09.37 30.24-2.907 48-5s39.126-3 56-3c16.874 0 29.256.91 46 1 16.744.09 37.85-.641 55-1s30.344-.345 50 1 45.774 4.02 64 5c18.226.98 28.56.264 46 0s41.983-.075 61 0c19.017.075 32.509.038 86 0l-40 480H0Z" fill="url(#d)"/><path d="M0 150c16.05 5.583 32.1 11.167 48 8 15.9-3.167 31.65-15.083 49-16 17.35-.917 36.298 9.165 56 9 19.702-.165 40.156-10.577 60-9s39.079 15.145 55 16c15.921.855 28.53-11.002 45-12 16.47-.998 36.803 8.863 54 9 17.197.137 31.26-9.45 49-10 17.74-.55 39.16 7.934 59 11 19.84 3.066 38.101.715 56 0s35.435.207 54 1c18.565.793 38.157 1.455 53-2 14.843-3.455 24.936-11.029 43-12 18.064-.971 44.1 4.66 61 8s24.667 4.39 40 5c15.333.61 38.234.782 60 1 21.766.218 42.399.482 58-3 15.601-3.482 26.172-10.71 42-12 15.828-1.29 36.914 3.355 98 8l-40 450H0Z" fill="url(#e)"/><path d="M0 180c13.437-.216 26.874-.433 44 1s37.941 4.515 58 5c20.059.485 39.36-1.628 59-5s39.618-8.002 55-8c15.382.002 26.169 4.637 44 6 17.831 1.363 42.708-.546 60-2s26.999-2.454 44 1 41.296 11.361 61 9c19.704-2.361 34.815-14.99 50-16 15.185-1.01 30.442 9.6 49 12 18.558 2.4 40.415-3.41 57-4 16.585-.59 27.898 4.037 44 7s36.991 4.263 58 1 42.136-11.088 61-10c18.864 1.088 35.463 11.09 51 11 15.537-.09 30.01-10.272 48-10 17.99.272 39.497 10.996 57 10 17.503-.996 31-13.713 47-17 16-3.287 34.5 2.857 93 9l-40 420H0Z" fill="url(#f)"/><path d="M0 210c14.877-4.31 29.753-8.62 48-9 18.247-.38 39.863 3.168 57 5 17.137 1.832 29.795 1.948 49 0s44.958-5.96 62-4 25.372 9.892 42 12c16.628 2.108 41.554-1.606 62-2 20.446-.394 36.41 2.533 53 2 16.59-.533 33.803-4.527 49-4 15.197.527 28.379 5.576 46 8 17.621 2.424 39.682 2.225 61-2 21.318-4.225 41.895-12.476 57-11 15.105 1.476 24.739 12.679 41 12 16.261-.679 39.15-13.239 60-14 20.85-.761 39.658 10.276 56 11 16.342.724 30.216-8.867 47-8 16.784.867 36.478 12.191 55 12 18.522-.191 35.871-11.898 53-13 17.129-1.102 34.037 8.4 51 11 16.963 2.6 33.982-1.7 91-6l-40 390H0Z" fill="url(#g)"/><path d="M0 240c15.487-.675 30.975-1.35 47 0s32.588 4.726 53 5 44.672-2.553 64-4c19.328-1.447 33.724-1.515 51-1 17.276.515 37.43 1.611 53 3s26.553 3.07 45 2c18.447-1.07 44.356-4.89 61-5 16.644-.11 24.024 3.492 41 1s43.547-11.076 62-9c18.453 2.076 28.788 14.812 44 16 15.212 1.188 35.3-9.173 56-10 20.7-.827 42.012 7.881 61 8 18.988.119 35.651-8.352 52-11 16.349-2.648 32.384.526 48 2s30.814 1.249 46 3 30.359 5.48 51 5c20.641-.48 46.75-5.168 64-7 17.25-1.832 25.643-.81 41 0s37.678 1.405 100 2l-40 360H0Z" fill="url(#h)"/><path d="M0 270c14.336-2.033 28.673-4.067 45-5 16.327-.933 34.646-.766 54 2s39.744 8.13 59 11c19.256 2.87 37.377 3.244 55 0 17.623-3.244 34.748-10.105 52-11 17.252-.895 34.63 4.176 53 4 18.37-.176 37.728-5.598 54-7 16.272-1.402 29.455 1.218 44 1 14.545-.218 30.45-3.274 50 0s42.744 12.877 63 12c20.256-.877 37.574-12.234 52-15 14.426-2.766 25.959 3.058 45 3 19.041-.058 45.59-6 62-4 16.41 2 22.681 11.938 40 16 17.319 4.062 45.685 2.246 67 1 21.315-1.246 35.58-1.922 52-4 16.42-2.078 34.998-5.56 51-6 16.002-.44 29.43 2.16 46 3 16.57.84 36.285-.08 96-1l-40 330H0Z" fill="url(#i)"/><path d="M0 300c18.044 3.965 36.088 7.93 55 7 18.912-.93 38.69-6.755 55-9 16.31-2.245 29.15-.909 46-2s37.712-4.61 55-4c17.288.61 31.003 5.35 49 8 17.997 2.65 40.276 3.208 61 4 20.724.792 39.894 1.816 54 0 14.106-1.816 23.15-6.471 41-10s44.51-5.93 63-3c18.49 2.93 28.813 11.194 45 14 16.187 2.806 38.239.154 58-3 19.761-3.154 37.232-6.81 54-9 16.768-2.19 32.835-2.913 51-2 18.165.913 38.428 3.462 54 4 15.572.538 26.452-.936 41 0 14.548.936 32.766 4.282 54 7s45.486 4.809 65 2c19.514-2.809 34.29-10.517 50-12 15.71-1.483 32.355 3.258 89 8l-40 300H0Z" fill="url(#j)"/><path d="M0 330c16.668-3.424 33.336-6.848 52-5 18.664 1.848 39.325 8.97 58 11 18.675 2.03 35.365-1.03 50-1 14.635.03 27.217 3.148 44 2 16.783-1.148 37.77-6.564 57-8 19.23-1.436 36.706 1.108 56 0 19.294-1.108 40.406-5.87 58-6 17.594-.13 31.672 4.37 48 5 16.328.63 34.908-2.612 53-3 18.092-.388 35.696 2.077 54 1 18.304-1.077 37.31-5.697 56-5 18.69.697 37.066 6.71 52 7 14.934.29 26.428-5.144 41-4 14.572 1.144 32.224 8.865 51 9 18.776.135 38.678-7.315 56-9 17.322-1.685 32.066 2.394 50 3 17.934.606 39.06-2.26 59-4 19.94-1.74 38.697-2.354 56-1 17.303 1.354 33.151 4.677 89 8l-40 270H0Z" fill="url(#k)"/><path d="M0 360c19.33.01 38.66.02 57-2 18.34-2.02 35.69-6.073 50-5 14.31 1.073 25.577 7.272 44 8 18.423.728 44-4.016 63-6s31.422-1.21 47-2 34.314-3.146 53 0 37.324 11.792 55 13c17.676 1.208 34.39-5.024 51-9s33.119-5.698 51-6c17.881-.302 37.135.815 55 3 17.865 2.185 34.342 5.44 51 5 16.658-.44 33.497-4.572 52-6s38.67-.153 57 2 34.821 5.183 53 5c18.179-.183 38.045-3.58 54-2 15.955 1.58 27.998 8.135 43 7 15.002-1.135 32.962-9.96 53-12 20.038-2.04 42.154 2.703 61 5 18.846 2.297 34.423 2.149 90 2l-40 240H0Z" fill="url(#l)"/><path d="M0 390c16.532-2.01 33.064-4.021 51-4 17.936.021 37.276 2.075 56 3 18.724.925 36.833.723 52 3 15.167 2.277 27.392 7.034 44 6 16.608-1.034 37.599-7.858 59-9 21.401-1.142 43.213 3.4 60 2s28.548-8.738 44-7c15.452 1.738 34.596 12.554 53 12 18.404-.554 36.068-12.478 52-13 15.932-.522 30.133 10.36 48 11 17.867.64 39.4-8.96 58-10 18.6-1.04 34.263 6.482 51 9 16.737 2.518 34.545.031 54 0s40.556 2.392 58 3c17.444.608 31.232-.6 46-1s30.515.006 49 1 39.707 2.575 57 1c17.293-1.575 30.655-6.307 48-8 17.345-1.693 38.672-.346 100 1l-40 210H0Z" fill="url(#m)"/><path d="M0 420c22.136-.322 44.271-.645 60 1s25.05 5.256 39 4c13.95-1.256 32.527-7.38 54-9s45.84 1.266 64 3c18.16 1.734 30.113 2.315 45 1s32.71-4.526 52-2 40.049 10.79 56 10c15.951-.79 27.096-10.634 45-13 17.904-2.366 42.566 2.745 62 3 19.434.255 33.638-4.347 50-5 16.362-.653 34.882 2.644 52 5 17.118 2.356 32.833 3.77 50 2s35.785-6.723 52-5c16.215 1.723 30.027 10.122 50 11 19.973.878 46.106-5.765 63-7 16.894-1.235 24.549 2.937 41 4 16.451 1.063 41.698-.983 61-2s32.658-1.005 49-1c16.342.005 35.671.002 95 0l-40 180H0Z" fill="url(#n)"/><path d="M0 450c17.594 4.777 35.188 9.554 54 8 18.812-1.554 38.84-9.44 58-10 19.16-.56 37.45 6.208 53 6 15.55-.208 28.358-7.39 46-10 17.642-2.61 40.116-.645 56 2s25.177 5.97 43 7c17.823 1.03 44.175-.238 63-2 18.825-1.762 30.123-4.017 46-2 15.877 2.017 36.334 8.306 56 8 19.666-.306 38.541-7.208 56-9 17.459-1.792 33.501 1.525 48 3 14.499 1.475 27.455 1.108 45-1s39.68-5.955 57-6c17.32-.045 29.826 3.714 48 5s42.016.099 60 1 30.109 3.891 47 1 38.548-11.663 59-10c20.452 1.663 39.7 13.76 57 17 17.3 3.24 32.65-2.38 88-8l-40 150H0Z" fill="url(#o)"/><path d="M0 480c17.86 2.18 35.72 4.361 53 6 17.28 1.639 33.978 2.737 50-1s31.367-12.308 49-13c17.633-.692 37.553 6.494 54 10 16.447 3.506 29.421 3.332 49 3 19.579-.332 45.762-.822 65-2s31.531-3.044 46-3c14.469.044 31.114 2 50 2s40.012-1.954 60-3 38.837-1.183 54 0c15.163 1.183 26.64 3.687 44 5 17.36 1.313 40.601 1.436 58-1s28.954-7.43 45-8c16.046-.57 36.583 3.286 56 4s37.714-1.712 57-1 39.561 4.562 57 4c17.439-.562 32.041-5.536 49-7 16.959-1.464 36.274.582 54 2 17.726 1.418 33.863 2.21 90 3l-40 120H0Z" fill="url(#p)"/><path d="M0 510c15.018-2.193 30.037-4.386 49-3 18.963 1.386 41.872 6.35 62 6 20.128-.35 37.477-6.016 54-7 16.523-.984 32.22 2.713 50 2 17.78-.713 37.644-5.838 55-6 17.356-.162 32.205 4.637 48 7 15.795 2.363 32.537 2.29 51 2 18.463-.29 38.65-.796 54-2 15.35-1.204 25.867-3.107 43-4 17.133-.893 40.882-.778 62 1 21.118 1.778 39.604 5.217 55 4 15.396-1.217 27.701-7.09 45-8 17.299-.91 39.592 3.142 59 6s35.933 4.522 53 5c17.067.478 34.678-.228 52 0 17.322.228 34.354 1.391 50 3s29.905 3.664 46 2c16.095-1.664 34.027-7.047 53-9 18.973-1.953 38.986-.477 99 1l-40 90H0Z" fill="url(#q)"/><path d="M0 540c15.884 4.757 31.767 9.514 51 7 19.233-2.514 41.815-12.299 58-13 16.185-.701 25.973 7.68 42 9 16.027 1.32 38.294-4.423 59-7 20.706-2.577 39.85-1.988 59-1s38.303 2.374 53 3c14.697.626 24.939.49 40 2s34.943 4.663 53 5c18.057.337 34.29-2.143 54-3 19.71-.857 42.896-.09 63 1s37.125 2.505 53 3c15.875.495 30.605.07 47-3s34.457-8.786 51-11c16.543-2.214 31.569-.928 51 3s43.267 10.497 60 11c16.733.503 26.361-5.061 41-5 14.639.061 34.287 5.747 54 4 19.713-1.747 39.49-10.928 58-13 18.51-2.072 35.755 2.964 93 8l-40 60H0Z" fill="url(#r)"/><path d="M0 570c14.404-3.918 28.807-7.836 45-8 16.193-.164 34.175 3.425 52 4 17.825.575 35.494-1.863 56-3s43.85-.973 62-1c18.15-.027 31.11-.243 46 0s31.713.947 49 3 35.039 5.457 55 8 42.131 4.225 59 3c16.869-1.225 28.435-5.359 46-9s41.127-6.79 59-5c17.873 1.79 30.058 8.522 46 8 15.942-.522 35.642-8.298 55-8 19.358.298 38.375 8.67 58 12s39.86 1.62 55 1c15.14-.62 25.187-.147 41-3 15.813-2.853 37.393-9.033 57-11 19.607-1.967 37.24.278 54 3 16.76 2.722 32.646 5.92 50 7s36.177.04 95-1l-40 30H0Z" fill="url(#s)"/></svg>