<svg width="1000" height="600" xmlns="http://www.w3.org/2000/svg"><defs><linearGradient id="a" gradientTransform="rotate(90)"><stop offset="5%" stop-color="#6b7c8e"/><stop offset="95%" stop-color="#909caa"/></linearGradient><linearGradient id="b" gradientTransform="rotate(90)"><stop offset="5%" stop-color="#65788d"/><stop offset="95%" stop-color="#8b99a9"/></linearGradient><linearGradient id="c" gradientTransform="rotate(90)"><stop offset="5%" stop-color="#60758b"/><stop offset="95%" stop-color="#8797a8"/></linearGradient><linearGradient id="d" gradientTransform="rotate(90)"><stop offset="5%" stop-color="#5a7189"/><stop offset="95%" stop-color="#8394a6"/></linearGradient><linearGradient id="e" gradientTransform="rotate(90)"><stop offset="5%" stop-color="#556d88"/><stop offset="95%" stop-color="#7f91a5"/></linearGradient><linearGradient id="f" gradientTransform="rotate(90)"><stop offset="5%" stop-color="#4f6986"/><stop offset="95%" stop-color="#7b8ea4"/></linearGradient><linearGradient id="g" gradientTransform="rotate(90)"><stop offset="5%" stop-color="#4a6584"/><stop offset="95%" stop-color="#778ba2"/></linearGradient><linearGradient id="h" gradientTransform="rotate(90)"><stop offset="5%" stop-color="#446283"/><stop offset="95%" stop-color="#7289a2"/></linearGradient><linearGradient id="i" gradientTransform="rotate(90)"><stop offset="5%" stop-color="#3f5e81"/><stop offset="95%" stop-color="#6f86a0"/></linearGradient><linearGradient id="j" gradientTransform="rotate(90)"><stop offset="5%" stop-color="#3f5d7c"/><stop offset="95%" stop-color="#6f859c"/></linearGradient><linearGradient id="k" gradientTransform="rotate(90)"><stop offset="5%" stop-color="#456073"/><stop offset="95%" stop-color="#738796"/></linearGradient><linearGradient id="l" gradientTransform="rotate(90)"><stop offset="5%" stop-color="#4a636b"/><stop offset="95%" stop-color="#778a90"/></linearGradient><linearGradient id="m" gradientTransform="rotate(90)"><stop offset="5%" stop-color="#506662"/><stop offset="95%" stop-color="#7b8c89"/></linearGradient><linearGradient id="n" gradientTransform="rotate(90)"><stop offset="5%" stop-color="#56695a"/><stop offset="95%" stop-color="#808e83"/></linearGradient><linearGradient id="o" gradientTransform="rotate(90)"><stop offset="5%" stop-color="#5b6c51"/><stop offset="95%" stop-color="#84907c"/></linearGradient><linearGradient id="p" gradientTransform="rotate(90)"><stop offset="5%" stop-color="#616f49"/><stop offset="95%" stop-color="#889376"/></linearGradient><linearGradient id="q" gradientTransform="rotate(90)"><stop offset="5%" stop-color="#677240"/><stop offset="95%" stop-color="#8d956f"/></linearGradient><linearGradient id="r" gradientTransform="rotate(90)"><stop offset="5%" stop-color="#6c7538"/><stop offset="95%" stop-color="#909769"/></linearGradient><linearGradient id="s" gradientTransform="rotate(90)"><stop offset="5%" stop-color="#72782f"/><stop offset="95%" stop-color="#959963"/></linearGradient></defs><path fill="#708090" d="M0 0h1000v600H0z"/><path d="M0 30c10.95-.61 21.899-1.222 33-2 11.101-.778 22.355-1.724 34-1s23.681 3.119 35 5c11.319 1.881 21.92 3.25 33 1 11.08-2.25 22.642-8.118 34-8 11.358.118 22.513 6.222 33 7 10.487.778 20.306-3.77 31-4 10.694-.23 22.263 3.862 33 5 10.737 1.138 20.643-.675 32-2s24.167-2.16 36-3c11.833-.84 22.691-1.681 34 0 11.309 1.681 23.069 5.885 34 5 10.931-.885 21.033-6.86 32-7 10.967-.14 22.798 5.556 34 7 11.202 1.444 21.775-1.364 33-2 11.225-.636 23.102.9 34 1 10.898.1 20.815-1.234 31-1 10.185.234 20.636 2.038 32 1 11.364-1.038 23.641-4.917 35-6 11.359-1.083 21.8.63 33 1s23.16-.603 34-1 20.562-.217 31 0c10.438.217 21.591.473 34 2 12.409 1.527 26.072 4.326 37 5 10.928.674 19.12-.776 29-2 9.88-1.224 21.446-2.22 33-3 11.554-.78 23.097-1.343 35 0 11.903 1.343 24.166 4.592 35 5 10.834.408 20.238-2.026 31-3 10.762-.974 22.88-.487 75 0l-40 570H0Z" fill="url(#a)"/><path d="M0 60c10.65-.546 21.302-1.091 33-1 11.698.091 24.444.82 35 1 10.556.18 18.922-.187 29 0s21.867.93 34 0 24.612-3.53 36-4c11.388-.47 21.687 1.188 32 2 10.313.812 20.639.779 32 0s23.758-2.303 36-2c12.242.303 24.33 2.432 35 3 10.67.568 19.92-.427 30 0 10.08.427 20.987 2.275 33 3 12.013.725 25.131.327 37 0s22.488-.584 33-2 20.917-3.993 32-3c11.083.993 22.843 5.555 34 6 11.157.445 21.713-3.228 33-5 11.287-1.772 23.307-1.642 34-1 10.693.642 20.059 1.796 31 1 10.941-.796 23.458-3.54 35-3 11.542.54 22.108 4.366 33 5 10.892.634 22.11-1.925 33-3s21.449-.668 33 1c11.551 1.668 24.094 4.595 35 5 10.906.405 20.177-1.714 31-4s23.198-4.74 35-4c11.802.74 23.03 4.67 34 5 10.97.33 21.683-2.943 32-4s20.24.1 32 0c11.76-.1 25.36-1.457 37-1 11.64.457 21.32 2.729 71 5l-40 540H0Z" fill="url(#b)"/><path d="M0 90c11.307-1.664 22.614-3.327 34-4s22.85-.355 34 0c11.15.355 21.986.747 33 1s22.206.368 33 1 21.189 1.781 32 3 22.04 2.507 33 1c10.96-1.507 21.654-5.808 33-5 11.346.808 23.345 6.724 35 7 11.655.276 22.966-5.088 34-7 11.034-1.912 21.792-.373 33 0 11.208.373 22.866-.421 34 1s21.745 5.058 32 4c10.255-1.058 20.154-6.812 31-7 10.846-.188 22.64 5.19 35 8 12.36 2.81 25.287 3.05 36 1 10.713-2.05 19.214-6.39 30-6 10.786.39 23.858 5.51 35 6 11.142.49 20.354-3.65 31-6s22.724-2.908 34-3c11.276-.092 21.748.284 33 1 11.252.716 23.285 1.773 35 2 11.715.227 23.112-.375 34 0 10.888.375 21.265 1.727 32 1 10.735-.727 21.827-3.533 33-4 11.173-.467 22.426 1.403 34 3 11.574 1.597 23.469 2.92 34 4 10.531 1.08 19.7 1.918 30 2 10.3.082 21.735-.593 34-2s25.361-3.545 37-4c11.639-.455 21.82.772 72 2l-40 510H0Z" fill="url(#c)"/><path d="M0 120c11.647 2.064 23.293 4.128 34 4 10.707-.128 20.474-2.45 31-3 10.526-.55 21.812.669 33 1 11.188.331 22.277-.226 34 0 11.723.226 24.08 1.236 35 0 10.92-1.236 20.402-4.719 32-5 11.598-.281 25.312 2.638 36 3 10.688.362 18.35-1.834 29-1 10.65.834 24.29 4.7 36 5 11.71.3 21.488-2.964 32-5s21.757-2.844 33-3c11.243-.156 22.483.341 33 1s20.312 1.48 32 1c11.688-.48 25.27-2.259 37-2 11.73.259 21.611 2.557 32 3 10.389.443 21.285-.968 33-2s24.248-1.685 35 0c10.752 1.685 19.722 5.71 31 6 11.278.29 24.862-3.153 36-4 11.138-.847 19.829.9 31 1 11.171.1 24.822-1.45 36-2s19.882-.101 31 1c11.118 1.101 24.65 2.854 36 3 11.35.146 20.518-1.316 31-1 10.482.316 22.276 2.408 33 2 10.724-.408 20.376-3.317 32-4 11.624-.683 25.219.858 37 2 11.781 1.142 21.749 1.884 32 1 10.251-.884 20.786-3.396 32-4 11.214-.604 23.107.698 75 2l-40 480H0Z" fill="url(#d)"/><path d="M0 150c11.196-2.02 22.391-4.04 33-5 10.609-.96 20.63-.862 32 0 11.37.862 24.089 2.486 36 3 11.911.514 23.015-.082 34 0s21.853.843 32 2c10.147 1.157 19.575 2.71 31 2s24.849-3.684 37-3c12.151.684 23.03 5.025 33 5 9.97-.025 19.031-4.416 30-5 10.969-.584 23.845 2.64 35 3 11.155.36 20.587-2.146 32-2 11.413.146 24.806 2.942 37 2 12.194-.942 23.188-5.622 33-7 9.812-1.378 18.441.547 29 2 10.559 1.453 23.047 2.434 35 2 11.953-.434 23.37-2.283 35-1 11.63 1.283 23.47 5.696 34 5 10.53-.696 19.748-6.502 31-8 11.252-1.498 24.538 1.313 36 2s21.1-.751 32-1c10.9-.249 23.062.692 34 1 10.938.308 20.652-.018 32 1 11.348 1.018 24.33 3.38 35 3 10.67-.38 19.027-3.503 30-3 10.973.503 24.561 4.632 36 5 11.439.368 20.728-3.026 31-4 10.272-.974 21.526.47 33 0s23.166-2.858 35-3c11.834-.142 23.81 1.96 35 3 11.19 1.04 21.595 1.02 72 1l-40 450H0Z" fill="url(#e)"/><path d="M0 180c9.81-2.167 19.618-4.334 31-4 11.382.334 24.336 3.17 36 5 11.664 1.83 22.038 2.655 33 1 10.962-1.655 22.512-5.789 33-6 10.488-.211 19.914 3.501 31 5 11.086 1.499 23.833.785 36 1 12.167.215 23.756 1.36 35 1 11.244-.36 22.145-2.221 33-4s21.666-3.474 32-3c10.334.474 20.191 3.117 31 3 10.809-.117 22.57-2.995 35-3 12.43-.005 25.532 2.862 36 3 10.468.138 18.303-2.453 29-2 10.697.453 24.257 3.95 36 5 11.743 1.05 21.668-.348 32-1s21.071-.558 32-2c10.929-1.442 22.048-4.419 33-4 10.952.419 21.738 4.234 33 5s23-1.518 34-1 21.264 3.838 33 4c11.736.162 24.945-2.836 37-4 12.055-1.164 22.956-.496 33-1s19.231-2.18 30-2c10.769.18 23.12 2.216 35 4 11.88 1.784 23.29 3.316 34 3 10.71-.316 20.718-2.48 32-3s23.839.603 35 1c11.161.397 20.928.068 32 0s23.45.123 35 0 22.275-.562 73-1l-40 420H0Z" fill="url(#f)"/><path d="M0 210c10.371.084 20.743.169 32 1 11.257.831 23.4 2.41 35 1 11.6-1.41 22.659-5.806 34-6 11.341-.194 22.965 3.814 33 5s18.48-.449 30-2 26.115-3.02 38-3c11.885.02 21.061 1.526 32 2s23.64-.086 34 0 18.376.816 29 1c10.624.184 23.855-.178 36 0s23.205.897 34 2c10.795 1.103 21.324 2.59 33 2 11.676-.59 24.5-3.26 35-4 10.5-.74 18.677.451 29 0s22.794-2.545 35-2c12.206.545 24.149 3.73 35 5 10.851 1.27 20.61.626 31-1s21.41-4.236 33-4c11.59.236 23.75 3.316 35 5 11.25 1.684 21.588 1.972 33 2 11.412.028 23.898-.206 35 0s20.82.85 31-1 20.82-6.195 32-7c11.18-.805 22.903 1.928 35 4 12.097 2.072 24.57 3.482 36 4 11.43.518 21.817.144 32-1s20.162-3.06 31-3c10.838.06 22.533 2.093 34 2 11.467-.093 22.705-2.312 34-3 11.295-.688 22.648.156 74 1l-40 390H0Z" fill="url(#g)"/><path d="M0 240c10.679-2.1 21.358-4.2 33-5 11.642-.8 24.248-.298 35 2 10.752 2.298 19.65 6.39 30 6 10.35-.39 22.15-5.266 33-7 10.85-1.734 20.747-.328 33 1s26.862 2.577 38 2c11.138-.577 18.807-2.98 29-2 10.193.98 22.91 5.344 34 6 11.09.656 20.55-2.394 32-2 11.45.394 24.886 4.233 37 3 12.114-1.233 22.906-7.54 33-8 10.094-.46 19.491 4.925 30 6 10.509 1.075 22.13-2.161 34-4 11.87-1.839 23.988-2.281 35-2 11.012.281 20.92 1.285 32 2 11.08.715 23.336 1.141 35 1 11.664-.141 22.738-.85 34-1 11.262-.15 22.713.258 34 1 11.287.742 22.41 1.818 33 3s20.644 2.472 31 1c10.356-1.472 21.015-5.704 32-6 10.985-.296 22.297 3.343 34 4s23.797-1.67 35-1c11.203.67 21.513 4.334 32 4 10.487-.334 21.149-4.665 33-6 11.851-1.335 24.891.327 36 0 11.109-.327 20.287-2.644 31-3 10.713-.356 22.961 1.25 35 2 12.039.75 23.868.643 35 1 11.132.357 21.566 1.179 72 2l-40 360H0Z" fill="url(#h)"/><path d="M0 270c12.419 1.124 24.838 2.248 35 2 10.162-.248 18.068-1.87 29-2 10.932-.13 24.89 1.229 37 0s22.372-5.047 33-5c10.628.047 21.62 3.957 33 4 11.38.043 23.145-3.783 34-3 10.855.783 20.8 6.174 31 7 10.2.826 20.657-2.911 32-4s23.574.472 35 2c11.426 1.528 22.049 3.022 33 2 10.951-1.022 22.23-4.561 33-6s21.028-.777 33 1c11.972 1.777 25.657 4.669 37 4 11.343-.669 20.343-4.898 31-5 10.657-.102 22.97 3.924 34 5 11.03 1.076 20.773-.796 32-1 11.227-.204 23.935 1.262 35 0 11.065-1.262 20.486-5.252 32-6 11.514-.748 25.121 1.745 36 3 10.879 1.255 19.03 1.272 30 1 10.97-.272 24.761-.833 36-1 11.239-.167 19.925.06 30 0s21.538-.404 34-1 25.923-1.443 37 0c11.077 1.443 19.769 5.176 30 6 10.231.824 22.001-1.263 33-3 10.999-1.737 21.226-3.125 33-2 11.774 1.125 25.093 4.765 36 5 10.907.235 19.402-2.933 30-4 10.598-1.067 23.299-.034 76 1l-40 330H0Z" fill="url(#i)"/><path d="M0 300c11.881 1.754 23.762 3.508 34 4s18.832-.278 30-1 24.911-1.395 36-3c11.089-1.605 19.524-4.14 31-5 11.476-.86 25.991-.044 37 2s18.511 5.316 29 5c10.489-.316 23.965-4.222 36-5 12.035-.778 22.63 1.57 33 2 10.37.43 20.518-1.059 32-2 11.482-.941 24.299-1.335 36-1 11.701.335 22.287 1.4 33 2 10.713.6 21.554.734 32 1 10.446.266 20.495.665 32 1 11.505.335 24.464.607 36 0 11.536-.607 21.65-2.092 32-3 10.35-.908 20.936-1.237 32-1 11.064.237 22.607 1.042 34 3s22.636 5.069 34 4 22.85-6.318 34-6c11.15.318 21.967 6.203 33 6 11.033-.203 22.281-6.494 33-7 10.719-.506 20.907 4.771 32 5 11.093.229 23.09-4.591 35-6 11.91-1.409 23.732.593 34 3s18.982 5.218 30 5c11.018-.218 24.339-3.464 36-5 11.661-1.536 21.662-1.36 33-1 11.338.36 24.014.905 35 2s20.282 2.742 31 3 22.86-.87 75-2l-40 300H0Z" fill="url(#j)"/><path d="M0 330c10.794.698 21.588 1.396 33 2 11.412.604 23.44 1.114 35 0 11.56-1.114 22.65-3.851 33-4 10.35-.149 19.96 2.29 31 4s23.512 2.688 35 1c11.488-1.688 21.991-6.043 33-7 11.009-.957 22.523 1.485 34 3s22.918 2.104 34 3c11.082.896 21.805 2.1 33 1s22.862-4.507 34-5c11.138-.493 21.748 1.926 32 1 10.252-.926 20.145-5.196 31-4 10.855 1.196 22.672 7.86 34 8 11.328.14 22.167-6.24 33-8 10.833-1.76 21.66 1.104 33 2 11.34.896 23.193-.175 35 1 11.807 1.175 23.569 4.595 34 4 10.431-.595 19.532-5.206 30-6 10.468-.794 22.301 2.23 34 3 11.699.77 23.262-.713 34-2s20.651-2.378 32-2c11.349.378 24.133 2.223 36 3 11.867.777 22.817.485 34 1s22.598 1.836 34 3c11.402 1.164 22.79 2.17 34 0s22.238-7.515 33-7c10.762.515 21.256 6.89 32 7 10.744.11 21.739-6.047 33-7 11.261-.953 22.789 3.3 34 5 11.211 1.7 22.106.85 73 0l-40 270H0Z" fill="url(#k)"/><path d="M0 360c11.234 1.065 22.469 2.13 33 2 10.531-.13 20.36-1.456 32-3s25.095-3.306 37-2c11.905 1.306 22.262 5.681 32 5s18.859-6.42 30-7c11.141-.58 24.304 3.997 36 6 11.696 2.003 21.924 1.432 32 1 10.076-.432 19.999-.725 32-2 12.001-1.275 26.082-3.533 38-4 11.918-.467 21.675.857 32 2s21.218 2.105 32 3 21.452 1.724 33 2c11.548.276 23.975 0 35-1 11.025-1 20.649-2.721 32-3 11.351-.279 24.43.885 36 0s21.631-3.82 32-3c10.369.82 21.044 5.395 32 6 10.956.605 22.191-2.76 34-4 11.809-1.24 24.19-.355 35-1 10.81-.645 20.05-2.82 31-2 10.95.82 23.613 4.635 34 5 10.387.365 18.5-2.72 30-4 11.5-1.28 26.388-.754 38 0 11.612.754 19.95 1.737 31 2 11.05.263 24.814-.193 36-1 11.186-.807 19.796-1.965 31-1 11.204.965 25.003 4.052 36 5 10.997.948 19.191-.245 30 0 10.809.245 24.231 1.927 36 2 11.769.073 21.884-1.464 72-3l-40 240H0Z" fill="url(#l)"/><path d="M0 390c10.163 2.161 20.325 4.323 32 3 11.675-1.323 24.862-6.13 36-7 11.138-.87 20.226 2.196 31 4 10.774 1.804 23.233 2.346 34 3 10.767.654 19.843 1.418 31 0s24.395-5.02 36-6c11.605-.98 21.577.66 32 1 10.423.34 21.298-.619 32-1 10.702-.381 21.23-.184 33 1s24.78 3.356 36 5c11.22 1.644 20.652 2.76 32 1 11.348-1.76 24.613-6.397 36-7 11.387-.603 20.898 2.83 31 5s20.796 3.08 32 1 22.918-7.147 35-7c12.082.147 24.533 5.51 36 6 11.467.49 21.949-3.892 32-4 10.051-.108 19.672 4.057 31 5 11.328.943 24.362-1.335 36-3 11.638-1.665 21.879-2.715 33-3 11.121-.285 23.122.195 34 1 10.878.805 20.634 1.934 32 1 11.366-.934 24.343-3.93 35-3 10.657.93 18.993 5.787 30 6 11.007.213 24.686-4.218 36-4 11.314.218 20.264 5.086 31 5 10.736-.086 23.26-5.126 35-6 11.74-.874 22.7 2.419 33 3s19.943-1.548 31-2c11.057-.452 23.528.774 76 2l-40 210H0Z" fill="url(#m)"/><path d="M0 420c9.583-.647 19.165-1.295 31-1 11.835.295 25.922 1.532 37 2 11.078.468 19.146.168 30-1s24.494-3.203 36-2c11.506 1.203 20.877 5.644 31 5 10.123-.644 20.996-6.373 33-8 12.004-1.627 25.138.846 37 3 11.862 2.154 22.451 3.987 33 5s21.057 1.204 32-1c10.943-2.204 22.32-6.804 33-6 10.68.804 20.662 7.013 32 7 11.338-.013 24.032-6.247 35-7 10.968-.753 20.209 3.977 31 6s23.133 1.34 35 0 23.258-3.34 35-5c11.742-1.66 23.836-2.983 34-2 10.164.983 18.398 4.272 29 4 10.602-.272 23.574-4.103 36-3 12.426 1.103 24.308 7.142 35 8 10.692.858 20.195-3.465 31-6s22.912-3.281 34-2c11.088 1.281 21.157 4.59 32 6 10.843 1.41 22.46.92 34 0s23-2.271 34-2c11 .271 21.541 2.164 32 1 10.459-1.164 20.836-5.387 32-6 11.164-.613 23.116 2.382 35 3 11.884.618 23.7-1.141 35-1 11.3.141 22.086 2.183 33 3 10.914.817 21.957.408 73 0l-40 180H0Z" fill="url(#n)"/><path d="M0 450c11.1.091 22.199.183 33 0 10.801-.183 21.305-.64 33-2 11.695-1.36 24.582-3.623 35-3 10.418.623 18.368 4.134 29 6 10.632 1.866 23.948 2.089 36 1s22.84-3.49 34-5c11.16-1.51 22.69-2.13 34 0 11.31 2.13 22.4 7.01 33 7 10.6-.01 20.708-4.908 31-7 10.292-2.092 20.767-1.376 33 0s26.223 3.412 37 3c10.777-.412 18.342-3.272 29-3 10.658.272 24.409 3.675 36 4 11.591.325 21.022-2.428 32-4 10.978-1.572 23.503-1.961 35 0s21.965 6.273 33 7c11.035.727 22.638-2.132 34-4 11.362-1.868 22.482-2.746 33-3s20.433.117 32 0 24.784-.723 37 0c12.216.723 23.43 2.776 33 3 9.57.224 17.495-1.382 28-1 10.505.382 23.59 2.753 36 2 12.41-.753 24.144-4.629 35-5 10.856-.371 20.833 2.762 32 4 11.167 1.238 23.526.58 35 0s22.065-1.083 33-1c10.935.083 22.213.753 33 0 10.787-.753 21.082-2.93 32-3 10.918-.07 22.459 1.965 74 4l-40 150H0Z" fill="url(#o)"/><path d="M0 480c11.054-1.921 22.107-3.843 34-4 11.893-.157 24.624 1.45 35 3 10.376 1.55 18.396 3.041 29 4 10.604.959 23.794 1.385 35 1s20.43-1.583 31-2c10.57-.417 22.488-.055 34-1s22.62-3.197 34-2c11.38 1.197 23.032 5.843 34 5s21.254-7.174 32-8c10.746-.826 21.954 3.854 34 5s24.93-1.242 36-3 20.325-2.885 31-3c10.675-.115 22.77.783 34 1 11.23.217 21.596-.247 33 1 11.404 1.247 23.846 4.206 35 5 11.154.794 21.02-.578 31-1 9.98-.422 20.074.105 32-1 11.926-1.105 25.683-3.842 37-3 11.317.842 20.193 5.263 31 6 10.807.737 23.546-2.21 35-3s21.625.577 32 1c10.375.423 20.956-.097 32-1s22.551-2.188 34-3c11.449-.812 22.839-1.15 34 0 11.161 1.15 22.094 3.788 34 5 11.906 1.212 24.784.999 35-1 10.216-1.999 17.77-5.783 29-6 11.23-.217 26.14 3.134 38 5s20.675 2.247 31 2c10.325-.247 22.163-1.124 74-2l-40 120H0Z" fill="url(#p)"/><path d="M0 510c11.671 2.122 23.343 4.243 34 4 10.657-.243 20.3-2.852 32-4 11.7-1.148 25.454-.835 36 0s17.883 2.19 29 1 26.016-4.927 37-4c10.984.927 18.055 6.517 29 7 10.945.483 25.764-4.142 38-5 12.236-.858 21.889 2.051 32 3 10.111.949 20.68-.063 32-1s23.39-1.8 35-3 22.758-2.738 34-2 22.576 3.752 33 4c10.424.248 19.937-2.27 31-2 11.063.27 23.676 3.326 35 3 11.324-.326 21.358-4.033 32-5 10.642-.967 21.893.808 33 3s22.069 4.802 33 4c10.931-.802 21.831-5.015 33-6 11.169-.985 22.605 1.258 34 3s22.747 2.983 34 4 22.407 1.81 33 0 20.625-6.223 32-7c11.375-.777 24.093 2.082 35 2 10.907-.082 20.003-3.105 31-2s23.896 6.338 35 6c11.104-.338 20.412-6.248 32-6 11.588.248 25.457 6.654 37 7 11.543.346 20.762-5.368 31-7 10.238-1.632 21.497.82 33 2 11.503 1.18 23.252 1.09 75 1l-40 90H0Z" fill="url(#q)"/><path d="M0 540c10.05-2.322 20.101-4.644 31-5 10.899-.356 22.646 1.252 34 2s22.316.634 33 2c10.684 1.366 21.09 4.211 33 4 11.91-.211 25.325-3.48 37-4s21.612 1.707 32 1c10.388-.707 21.229-4.35 33-4 11.771.35 24.473 4.69 36 6 11.527 1.31 21.879-.414 32-2 10.121-1.586 20.012-3.036 31-3 10.988.036 23.074 1.558 35 2 11.926.442 23.693-.196 34-1 10.307-.804 19.153-1.775 30-2 10.847-.225 23.693.296 36 1 12.307.704 24.075 1.592 34 2 9.925.408 18.007.336 29 1 10.993.664 24.896 2.063 37 1 12.104-1.063 22.409-4.59 33-6 10.591-1.41 21.47-.705 33 0 11.53.705 23.712 1.409 35 2s21.683 1.069 32 2 20.557 2.316 31 3c10.443.684 21.09.667 33 0s25.083-1.986 36-3c10.917-1.014 19.578-1.725 31-3s25.605-3.115 37-1 20.003 8.186 30 9c9.997.814 21.384-3.627 33-6s23.462-2.678 35-2c11.538.678 22.77 2.339 74 4l-40 60H0Z" fill="url(#r)"/><path d="M0 570c10.623 1.655 21.247 3.31 33 2s24.636-5.588 35-7 18.207.042 29 2 24.534 4.42 37 6c12.466 1.58 23.658 2.276 35 0 11.342-2.276 22.835-7.524 33-7s19 6.82 30 7c11 .18 24.161-5.757 35-7 10.839-1.243 19.355 2.208 30 3 10.645.792 23.419-1.073 35-1 11.581.073 21.97 2.085 33 3 11.03.915 22.7.732 34 0s22.23-2.015 33-3c10.77-.985 21.38-1.674 33-2 11.62-.326 24.248-.29 35 0 10.752.29 19.628.836 31 1 11.372.164 25.239-.052 37 1s21.417 3.374 32 5c10.583 1.626 22.093 2.556 33 0s21.211-8.596 32-8c10.789.596 22.063 7.83 34 8 11.937.17 24.539-6.724 35-7 10.461-.276 18.782 6.067 30 8 11.218 1.933 25.332-.543 37-1 11.668-.457 20.89 1.106 32 1 11.11-.106 24.107-1.88 35-3s19.683-1.59 31-3 25.162-3.764 36-3c10.838.764 18.668 4.647 29 6 10.332 1.353 23.166.177 76-1l-40 30H0Z" fill="url(#s)"/></svg>