<svg width="1000" height="600" xmlns="http://www.w3.org/2000/svg"><defs><linearGradient id="a" gradientTransform="rotate(90)"><stop offset="5%" stop-color="#6c733b"/><stop offset="95%" stop-color="#90966c"/></linearGradient><linearGradient id="b" gradientTransform="rotate(90)"><stop offset="5%" stop-color="#656e47"/><stop offset="95%" stop-color="#8b9275"/></linearGradient><linearGradient id="c" gradientTransform="rotate(90)"><stop offset="5%" stop-color="#5f6953"/><stop offset="95%" stop-color="#878e7e"/></linearGradient><linearGradient id="d" gradientTransform="rotate(90)"><stop offset="5%" stop-color="#59655f"/><stop offset="95%" stop-color="#828b87"/></linearGradient><linearGradient id="e" gradientTransform="rotate(90)"><stop offset="5%" stop-color="#52606c"/><stop offset="95%" stop-color="#7d8790"/></linearGradient><linearGradient id="f" gradientTransform="rotate(90)"><stop offset="5%" stop-color="#4c5b78"/><stop offset="95%" stop-color="#788499"/></linearGradient><linearGradient id="g" gradientTransform="rotate(90)"><stop offset="5%" stop-color="#465684"/><stop offset="95%" stop-color="#7480a2"/></linearGradient><linearGradient id="h" gradientTransform="rotate(90)"><stop offset="5%" stop-color="#3f5190"/><stop offset="95%" stop-color="#6f7cab"/></linearGradient><linearGradient id="i" gradientTransform="rotate(90)"><stop offset="5%" stop-color="#394c9c"/><stop offset="95%" stop-color="#6a78b4"/></linearGradient><linearGradient id="j" gradientTransform="rotate(90)"><stop offset="5%" stop-color="#3e50a3"/><stop offset="95%" stop-color="#6e7bba"/></linearGradient><linearGradient id="k" gradientTransform="rotate(90)"><stop offset="5%" stop-color="#4f5ba6"/><stop offset="95%" stop-color="#7b84bc"/></linearGradient><linearGradient id="l" gradientTransform="rotate(90)"><stop offset="5%" stop-color="#5f66a8"/><stop offset="95%" stop-color="#878cbd"/></linearGradient><linearGradient id="m" gradientTransform="rotate(90)"><stop offset="5%" stop-color="#7071aa"/><stop offset="95%" stop-color="#9394bf"/></linearGradient><linearGradient id="n" gradientTransform="rotate(90)"><stop offset="5%" stop-color="#807cad"/><stop offset="95%" stop-color="#9f9cc1"/></linearGradient><linearGradient id="o" gradientTransform="rotate(90)"><stop offset="5%" stop-color="#9187af"/><stop offset="95%" stop-color="#aca5c3"/></linearGradient><linearGradient id="p" gradientTransform="rotate(90)"><stop offset="5%" stop-color="#a192b2"/><stop offset="95%" stop-color="#b8adc5"/></linearGradient><linearGradient id="q" gradientTransform="rotate(90)"><stop offset="5%" stop-color="#b29db4"/><stop offset="95%" stop-color="#c5b5c6"/></linearGradient><linearGradient id="r" gradientTransform="rotate(90)"><stop offset="5%" stop-color="#c2a8b7"/><stop offset="95%" stop-color="#d1bdc9"/></linearGradient><linearGradient id="s" gradientTransform="rotate(90)"><stop offset="5%" stop-color="#d3b3b9"/><stop offset="95%" stop-color="#dec6ca"/></linearGradient></defs><path fill="#72782f" d="M0 0h1000v600H0z"/><path d="M0 30c11.887.246 23.775.492 35-1 11.225-1.492 21.789-4.723 32-4 10.211.723 20.071 5.4 31 7 10.929 1.6 22.927.123 34 0s21.22 1.11 32 0c10.78-1.11 22.192-4.56 34-6 11.808-1.44 24.014-.869 36-1s23.754-.964 34 1c10.246 1.964 18.97 6.726 30 7 11.03.274 24.366-3.939 36-6s21.565-1.97 32-2c10.435-.03 21.374-.182 32 1 10.626 1.182 20.938 3.696 33 5 12.062 1.304 25.872 1.397 37 1s19.572-1.285 30-3 22.84-4.258 34-4 21.07 3.318 33 4c11.93.682 25.88-1.012 37 0 11.12 1.012 19.411 4.732 29 5 9.589.268 20.476-2.916 33-5 12.524-2.084 26.684-3.07 38-3 11.316.07 19.787 1.193 30 1 10.213-.193 22.169-1.7 34 0s23.538 6.611 34 6c10.462-.611 19.678-6.743 31-7 11.322-.257 24.75 5.362 36 7s20.325-.705 31-1c10.675-.295 22.951 1.46 35 0s23.871-6.131 35-7c11.129-.869 21.564 2.066 72 5l-40 570H0Z" fill="url(#a)"/><path d="M0 60c11.081 1.497 22.163 2.994 34 2 11.837-.994 24.43-4.48 35-6 10.57-1.52 19.118-1.073 30 0 10.882 1.073 24.099 2.774 35 3 10.901.226 19.488-1.022 31 0s25.95 4.314 37 4c11.05-.314 18.709-4.232 29-6 10.291-1.768 23.214-1.385 35 1 11.786 2.385 22.434 6.77 33 6 10.566-.77 21.048-6.697 33-8 11.952-1.303 25.372 2.02 36 3s18.464-.379 29-1c10.536-.621 23.774-.504 36 1 12.226 1.504 23.442 4.394 34 4 10.558-.394 20.458-4.072 32-4 11.542.072 24.727 3.893 36 5 11.273 1.107 20.636-.499 31-1s21.731.102 33 0c11.269-.102 22.44-.91 34-2 11.56-1.09 23.508-2.46 34-3s19.528-.246 31 0c11.472.246 25.38.445 37 0 11.62-.445 20.951-1.533 32-1 11.049.533 23.815 2.686 35 4 11.185 1.314 20.788 1.787 31 2 10.212.213 21.032.165 32-1s22.084-3.446 33-5c10.916-1.554 21.631-2.38 33-2 11.369.38 23.391 1.966 35 3 11.609 1.034 22.804 1.517 74 2l-40 540H0Z" fill="url(#b)"/><path d="M0 90c9.977-.38 19.955-.758 31 0 11.045.758 23.158 2.655 35 2 11.842-.655 23.411-3.86 34-5 10.589-1.14 20.196-.215 31 1 10.804 1.215 22.805 2.721 35 2 12.195-.721 24.584-3.67 35-5s18.859-1.04 30 1c11.141 2.04 24.98 5.83 37 7s22.219-.279 32-2c9.781-1.721 19.144-3.715 31-4 11.856-.285 26.205 1.137 37 1 10.795-.137 18.035-1.834 29-2 10.965-.166 25.654 1.197 38 2 12.346.803 22.35 1.045 33 1 10.65-.045 21.946-.376 32 0 10.054.376 18.866 1.46 30 1 11.134-.46 24.588-2.464 37-4 12.412-1.536 23.78-2.603 35-1 11.22 1.603 22.29 5.876 33 7 10.71 1.124 21.059-.9 32-3 10.941-2.1 22.475-4.278 34-3 11.525 1.278 23.04 6.012 34 7 10.96.988 21.367-1.768 32-4s21.494-3.94 32-3 20.657 4.526 32 5c11.343.474 23.876-2.163 36-2 12.124.163 23.837 3.126 34 4 10.163.874 18.775-.342 29-1 10.225-.658 22.064-.76 34-1s23.968-.62 76-1l-40 510H0Z" fill="url(#c)"/><path d="M0 120c11.86 1.531 23.721 3.062 35 3 11.279-.062 21.975-1.717 33-2 11.025-.283 22.377.806 33 1 10.623.194 20.516-.507 32-1 11.484-.493 24.558-.777 36-2 11.442-1.223 21.253-3.384 31-4 9.747-.616 19.431.312 31 2 11.569 1.688 25.021 4.136 37 5 11.979.864 22.483.143 33-2s21.046-5.71 32-5 22.331 5.696 33 8c10.669 2.304 20.63 1.924 32 0 11.37-1.924 24.152-5.394 35-6 10.848-.606 19.763 1.653 31 2 11.237.347 24.796-1.217 36-2 11.204-.783 20.053-.786 31 0s23.993 2.362 36 2c12.007-.362 22.974-2.663 34-3 11.026-.337 22.111 1.288 33 3s21.582 3.511 33 3c11.418-.511 23.563-3.333 35-4 11.437-.667 22.168.82 33 2 10.832 1.18 21.765 2.053 32 2 10.235-.053 19.771-1.033 31-2 11.229-.967 24.15-1.92 36-2 11.85-.08 22.628.713 34 1 11.372.287 23.337.067 34 1s20.025 3.02 31 4c10.975.98 23.564.851 35 0s21.718-2.426 72-4l-40 480H0Z" fill="url(#d)"/><path d="M0 150c10.405-.58 20.81-1.158 32-2 11.19-.842 23.162-1.947 35-2 11.838-.053 23.54.944 34 3s19.675 5.169 30 5c10.325-.169 21.76-3.62 34-5 12.24-1.38 25.286-.69 36 0 10.714.69 19.097 1.377 30 1 10.903-.377 24.327-1.817 36-2 11.673-.183 21.595.893 33 2 11.405 1.107 24.291 2.245 35 3 10.709.755 19.239 1.128 29-1s20.753-6.758 33-7 25.75 3.904 37 5 20.245-.857 31-2c10.755-1.143 23.27-1.477 35-1 11.73.477 22.673 1.765 33 2 10.327.235 20.036-.581 31-2 10.964-1.419 23.183-3.44 35-2s23.233 6.341 34 7c10.767.659 20.884-2.925 32-4 11.116-1.075 23.23.358 35 1s23.2.491 34 0 20.974-1.323 32-1c11.026.323 22.905 1.802 34 2 11.095.198 21.407-.884 33-2s24.468-2.266 35-1 18.72 4.948 29 5c10.28.052 22.652-3.524 35-5 12.348-1.476 24.67-.85 36 0 11.33.85 21.665 1.925 72 3l-40 450H0Z" fill="url(#e)"/><path d="M0 180c11.819-.75 23.637-1.501 35-2 11.363-.499 22.27-.746 33-1s21.285-.515 32 1c10.715 1.515 21.589 4.805 33 5 11.411.195 23.36-2.706 34-3 10.64-.294 19.974 2.02 31 2 11.026-.02 23.745-2.372 35-4 11.255-1.628 21.047-2.53 32-2 10.953.53 23.066 2.495 34 4 10.934 1.505 20.69 2.55 32 3 11.31.45 24.174.302 36 0s22.614-.76 34 0 23.369 2.74 34 1c10.631-1.74 19.91-7.199 30-8 10.09-.801 20.993 3.056 32 5 11.007 1.944 22.12 1.974 34 1 11.88-.974 24.528-2.953 36-3 11.472-.047 21.77 1.838 32 1 10.23-.838 20.396-4.4 32-5 11.604-.6 24.648 1.765 36 2 11.352.235 21.012-1.658 32-1 10.988.658 23.305 3.868 34 5 10.695 1.132 19.767.187 31-1s24.628-2.616 36-2c11.372.616 20.721 3.277 32 5 11.279 1.723 24.486 2.509 36 0s21.334-8.312 32-8c10.666.312 22.18 6.738 33 9 10.82 2.262 20.949.36 32-1 11.051-1.36 23.026-2.18 75-3l-40 420H0Z" fill="url(#f)"/><path d="M0 210c11.512-.666 23.024-1.331 34-1 10.976.331 21.416 1.66 32 3s21.311 2.69 32 1 21.339-6.423 33-7c11.661-.577 24.333 3 36 4 11.667 1 22.327-.578 33 0 10.673.578 21.357 3.313 33 3 11.643-.313 24.244-3.672 35-4 10.756-.328 19.667 2.377 31 2 11.333-.377 25.088-3.836 36-5 10.912-1.164 18.981-.031 29 2 10.019 2.031 21.987 4.962 34 4 12.013-.962 24.072-5.815 36-7 11.928-1.185 23.727 1.298 34 2s19.022-.376 30-1c10.978-.624 24.185-.795 36 1 11.815 1.795 22.237 5.556 33 5 10.763-.556 21.866-5.43 33-5 11.134.43 22.298 6.164 34 7 11.702.836 23.94-3.226 34-5 10.06-1.774 17.94-1.26 29 0 11.06 1.26 25.296 3.268 37 4 11.704.732 20.875.188 31-1s21.205-3.019 33-4c11.795-.981 24.306-1.113 35-1 10.694.113 19.57.47 31 0s25.414-1.765 37 0c11.586 1.765 20.773 6.59 31 7 10.227.41 21.493-3.597 33-5 11.507-1.403 23.253-.201 75 1l-40 390H0Z" fill="url(#g)"/><path d="M0 240c10.648.325 21.296.65 32-1s21.463-5.277 32-4c10.537 1.277 20.852 7.457 33 8 12.148.543 26.13-4.55 38-7 11.87-2.45 21.625-2.256 32 0s21.368 6.575 32 7c10.632.425 20.902-3.043 32-5 11.098-1.957 23.022-2.402 34-1 10.978 1.402 21.01 4.653 32 6 10.99 1.347 22.941.791 35 0 12.059-.791 24.226-1.819 35-3 10.774-1.181 20.154-2.517 31-1s23.156 5.887 34 5c10.844-.887 20.221-7.03 32-8 11.779-.97 25.958 3.231 38 5 12.042 1.769 21.945 1.105 32 1 10.055-.105 20.26.349 32 1 11.74.651 25.014 1.5 36 1s19.685-2.346 30-3c10.315-.654 22.246-.114 34-1 11.754-.886 23.33-3.199 35-2 11.67 1.199 23.437 5.909 34 6 10.563.091 19.924-4.437 31-5 11.076-.563 23.868 2.837 35 2 11.132-.837 20.605-5.913 31-6 10.395-.087 21.714 4.814 33 7 11.286 2.186 22.54 1.658 34 0s23.124-4.446 34-5c10.876-.554 20.965 1.128 32 2 11.035.872 23.018.936 75 1l-40 360H0Z" fill="url(#h)"/><path d="M0 270c10.174-2.266 20.349-4.532 31-4s21.779 3.862 33 6 22.535 3.086 34 1 23.081-7.204 35-8c11.919-.796 24.141 2.73 35 3 10.859.27 20.355-2.714 31-2s22.439 5.127 34 7c11.561 1.873 22.89 1.206 34-1s22-5.95 33-7c11-1.05 22.111.593 33 3s21.556 5.577 33 6c11.444.423 23.666-1.901 35-4s21.78-3.972 32-4c10.22-.028 20.212 1.791 31 4s22.37 4.808 34 3c11.63-1.808 23.309-8.024 34-8 10.691.024 20.395 6.286 32 7 11.605.714 25.113-4.121 36-4 10.887.121 19.155 5.199 30 5 10.845-.199 24.269-5.674 37-7 12.731-1.326 24.77 1.497 35 2 10.23.503 18.652-1.314 29-2 10.348-.686 22.623-.24 34 0 11.377.24 21.858.276 33 1s22.946 2.137 35 3c12.054.863 24.36 1.176 35 2 10.64.824 19.615 2.159 30 2 10.385-.159 22.18-1.812 34-4 11.82-2.188 23.663-4.91 35-5 11.337-.09 22.169 2.455 73 5l-40 330H0Z" fill="url(#i)"/><path d="M0 300c11.55 2.249 23.1 4.498 34 3 10.9-1.498 21.15-6.741 32-7 10.85-.259 22.301 4.468 34 6 11.699 1.532 23.646-.132 34-2 10.354-1.868 19.113-3.94 30-3s23.9 4.892 35 5c11.1.108 20.287-3.63 32-3 11.713.63 25.952 5.624 37 5 11.048-.624 18.906-6.867 29-8 10.094-1.133 22.424 2.844 34 5s22.397 2.49 34 2c11.603-.49 23.988-1.805 35-3s20.652-2.27 32-3c11.348-.73 24.404-1.113 36 1s21.732 6.722 33 6c11.268-.722 23.668-6.777 34-8 10.332-1.223 18.595 2.384 29 4 10.405 1.616 22.95 1.241 35 1 12.05-.241 23.605-.349 35-1s22.63-1.846 34-3c11.37-1.154 22.875-2.266 34-2s21.87 1.91 32 3c10.13 1.09 19.643 1.624 30 1 10.357-.624 21.556-2.408 34-2 12.444.408 26.132 3.007 37 3 10.868-.007 18.915-2.62 29-4s22.208-1.524 34 0c11.792 1.524 23.252 4.718 34 5 10.748.282 20.785-2.348 32-3 11.215-.652 23.607.674 76 2l-40 300H0Z" fill="url(#j)"/><path d="M0 330c11.128-.345 22.256-.69 33-1 10.744-.31 21.105-.583 32-1 10.895-.417 22.323-.977 34-2 11.677-1.023 23.604-2.51 35-1 11.396 1.51 22.26 6.018 33 7 10.74.982 21.357-1.563 32-3s21.313-1.767 33-1c11.687.767 24.392 2.632 36 2 11.608-.632 22.12-3.76 33-3 10.88.76 22.127 5.406 33 6 10.873.594 21.372-2.863 32-4s21.386.048 33 1 24.083 1.672 35 2c10.917.328 20.283.265 31-1 10.717-1.265 22.787-3.733 34-4 11.213-.267 21.57 1.668 33 2 11.43.332 23.931-.938 35-2 11.069-1.062 20.705-1.915 32-2 11.295-.085 24.25.598 35 1s19.296.524 30 1 23.566 1.307 35 2c11.434.693 21.438 1.247 32 2 10.562.753 21.68 1.703 33 2 11.32.297 22.842-.06 35-1 12.158-.94 24.95-2.462 36-3 11.05-.538 20.356-.092 31 0 10.644.092 22.626-.171 34-1 11.374-.829 22.14-2.223 33-2 10.86.223 21.817 2.064 33 3 11.183.936 22.591.968 74 1l-40 270H0Z" fill="url(#k)"/><path d="M0 360c10.003 1.404 20.005 2.809 31 2 10.995-.809 22.982-3.83 34-5s21.067-.488 33 0 25.75.784 37 2 19.932 3.353 31 4c11.068.647 24.52-.195 36-1 11.48-.805 20.985-1.572 31-1 10.015.572 20.54 2.483 32 3 11.46.517 23.856-.36 35-1 11.144-.64 21.035-1.04 32-1 10.965.04 23.005.52 34 0 10.995-.52 20.946-2.038 32-2 11.054.038 23.212 1.631 35 3s23.207 2.512 34 1 20.96-5.678 32-6c11.04-.322 22.956 3.202 34 3 11.044-.202 21.217-4.13 32-5 10.783-.87 22.175 1.315 34 2s24.083-.132 35 1c10.917 1.132 20.493 4.213 31 5 10.507.787 21.945-.718 33-2s21.725-2.34 33-2c11.275.34 23.153 2.078 34 2 10.847-.078 20.661-1.973 32-2 11.339-.027 24.201 1.814 36 2 11.799.186 22.535-1.282 34-1 11.465.282 23.66 2.313 34 2 10.34-.313 18.822-2.969 29-3 10.178-.031 22.05 2.563 34 3 11.95.437 23.975-1.281 76-3l-40 240H0Z" fill="url(#l)"/><path d="M0 390c9.644-2.442 19.288-4.884 31-5 11.712-.116 25.49 2.094 37 4 11.51 1.906 20.75 3.51 31 4 10.25.49 21.512-.132 33-1s23.201-1.98 34-3 20.683-1.948 32-2c11.317-.052 24.068.773 36 2 11.932 1.227 23.044 2.855 34 2s21.756-4.192 32-5c10.244-.808 19.93.912 31 3s23.52 4.544 35 3c11.48-1.544 21.988-7.088 33-7 11.012.088 22.528 5.81 34 7 11.472 1.19 22.902-2.15 34-2 11.098.15 21.866 3.789 33 3 11.134-.789 22.634-6.006 33-7 10.366-.994 19.598 2.234 31 4 11.402 1.766 24.973 2.068 37 2 12.027-.068 22.511-.507 33 0s20.983 1.96 32 2c11.017.04 22.556-1.334 34-2 11.444-.666 22.794-.624 33-1s19.27-1.171 31-2 26.13-1.692 38-2c11.87-.308 21.212-.063 31 1s20.023 2.942 31 3c10.977.058 22.695-1.706 34-2 11.305-.294 22.198.882 33 0s21.515-3.824 33-4c11.485-.176 23.743 2.412 76 5l-40 210H0Z" fill="url(#m)"/><path d="M0 420c10.54-2.259 21.078-4.517 32-4 10.922.517 22.227 3.81 33 5s21.016.279 32 0c10.984-.279 22.71.075 34 0s22.142-.578 33-2c10.858-1.422 21.722-3.761 34-3 12.278.761 25.971 4.624 37 7 11.029 2.376 19.393 3.265 30 1s23.457-7.686 35-9 21.78 1.478 32 4c10.22 2.522 20.422 4.774 32 4s24.53-4.573 36-6c11.47-1.427 21.454-.483 33 0s24.652.504 35 2c10.348 1.496 17.938 4.467 29 4 11.062-.467 25.597-4.372 38-6 12.403-1.628 22.674-.98 33 0s20.707 2.294 32 2c11.293-.294 23.498-2.194 35-3 11.502-.806 22.302-.517 32 0s18.292 1.264 30 3c11.708 1.736 26.528 4.462 38 4 11.472-.462 19.597-4.113 30-6 10.403-1.887 23.083-2.012 35 0 11.917 2.012 23.07 6.16 34 6 10.93-.16 21.636-4.626 32-5 10.364-.374 20.386 3.343 32 4s24.82-1.746 36-2 20.337 1.642 31 2c10.663.358 22.831-.82 75-2l-40 180H0Z" fill="url(#n)"/><path d="M0 450c10.728.457 21.455.915 32 1 10.545.085 20.907-.201 32-1 11.093-.799 22.917-2.109 35-2 12.083.109 24.425 1.637 36 2s22.384-.44 33 0 21.04 2.12 32 3c10.96.88 22.453.96 33 0s20.147-2.96 31-4c10.853-1.04 22.96-1.118 34 0s21.01 3.431 33 3c11.99-.431 25.998-3.608 37-5 11.002-1.392 18.996-1 29 0 10.004 1 22.016 2.608 34 4 11.984 1.392 23.94 2.569 36 2 12.06-.569 24.223-2.883 35-3 10.777-.117 20.169 1.962 30 3s20.102 1.035 32-1 25.422-6.1 37-6c11.578.1 21.21 4.366 32 6 10.79 1.634 22.741.634 34 0s21.826-.904 33-1c11.174-.096 22.956-.02 34-1s21.352-3.018 32-3c10.648.018 21.637 2.093 33 3s23.099.647 35 0 23.968-1.682 35-2c11.032-.318 21.03.08 31 1 9.97.92 19.915 2.363 31 2s23.31-2.532 35-3c11.69-.468 22.845.766 74 2l-40 150H0Z" fill="url(#o)"/><path d="M0 480c10.125-2.05 20.25-4.102 31-3 10.75 1.102 22.126 5.356 34 5 11.874-.356 24.246-5.32 35-6 10.754-.68 19.889 2.927 31 3 11.111.073 24.198-3.386 36-4 11.802-.614 22.319 1.616 33 4 10.681 2.384 21.527 4.92 32 4 10.473-.92 20.575-5.296 32-6 11.425-.704 24.175 2.263 36 3 11.825.737 22.726-.755 34-2 11.274-1.245 22.922-2.242 34-3s21.588-1.276 32 0c10.412 1.276 20.727 4.345 32 6 11.273 1.655 23.503 1.894 34 2 10.497.106 19.262.078 31 0s26.45-.205 38-1 19.935-2.257 30-2c10.065.257 21.807 2.233 33 2 11.193-.233 21.835-2.676 33-3 11.165-.324 22.854 1.47 35 3s24.75 2.793 35 2c10.25-.793 18.144-3.641 29-4 10.856-.359 24.675 1.773 37 3s23.156 1.55 34 0c10.844-1.55 21.7-4.974 33-5 11.3-.026 23.045 3.347 34 4 10.955.653 21.122-1.413 32-2s22.467.303 33 0c10.533-.303 20.01-1.801 31-2 10.99-.199 23.495.9 76 2l-40 120H0Z" fill="url(#p)"/><path d="M0 510c12.097-1.193 24.194-2.385 35-3 10.806-.615 20.32-.652 31 0s22.527 1.992 34 3c11.473 1.008 22.572 1.682 34 1 11.428-.682 23.187-2.722 34-3 10.813-.278 20.682 1.205 32 2 11.318.795 24.084.904 35 1 10.916.096 19.98.181 30 1s20.996 2.371 33 1c12.004-1.371 25.037-5.667 36-6 10.963-.333 19.857 3.296 31 4 11.143.704 24.536-1.516 36-2 11.464-.484 20.998.769 32 0 11.002-.769 23.473-3.559 35-3 11.527.559 22.109 4.467 33 4 10.891-.467 22.091-5.31 33-5 10.909.31 21.526 5.774 33 6 11.474.226 23.805-4.785 34-4 10.195.785 18.255 7.366 29 7 10.745-.366 24.174-7.68 36-8 11.826-.32 22.05 6.357 33 8 10.95 1.643 22.629-1.746 34-3 11.371-1.254 22.435-.374 34 0 11.565.374 23.632.243 34 0 10.368-.243 19.036-.597 30-2 10.964-1.403 24.222-3.854 36-3 11.778.854 22.074 5.012 33 7 10.926 1.988 22.48 1.804 33 1s20.006-2.23 31-3 23.497-.885 76-1l-40 90H0Z" fill="url(#q)"/><path d="M0 540c11.92 1.103 23.84 2.206 35 2 11.16-.206 21.558-1.722 32-3s20.928-2.32 32-2c11.072.32 22.731 2.001 34 3 11.269.999 22.148 1.316 34 2 11.852.684 24.677 1.736 35 1s18.146-3.261 29-4c10.854-.739 24.74.31 36 1 11.26.69 19.894 1.024 30 0 10.106-1.024 21.683-3.404 34-2s25.372 6.59 37 6c11.628-.59 21.829-6.96 33-9s23.312.247 34 2c10.688 1.753 19.922 2.971 31 2 11.078-.971 23.998-4.132 35-4 11.002.132 20.084 3.556 30 5s20.666.907 33 0 26.252-2.183 37-2c10.748.183 18.325 1.824 29 3s24.447 1.885 36 2c11.553.115 20.885-.364 32-2 11.115-1.636 24.011-4.43 35-4 10.989.43 20.07 4.082 31 6 10.93 1.918 23.706 2.103 35 0s21.104-6.495 32-6c10.896.495 22.878 5.876 34 6 11.122.124 21.383-5.008 33-7s24.59-.844 36 0 21.26 1.384 32 2c10.74.616 22.37 1.308 74 2l-40 60H0Z" fill="url(#r)"/><path d="M0 570c10.947 1.153 21.895 2.306 33 2 11.105-.306 22.368-2.07 33-2 10.632.07 20.634 1.972 32 1s24.098-4.817 36-5c11.902-.183 22.974 3.296 33 4 10.026.704 19.005-1.368 30-3 10.995-1.632 24.006-2.826 36-1s22.97 6.67 34 7c11.03.33 22.113-3.856 33-5 10.887-1.144 21.577.753 33 2 11.423 1.247 23.579 1.846 34 1 10.421-.846 19.108-3.135 30-3 10.892.135 23.989 2.694 36 3 12.011.306 22.937-1.641 33-3 10.063-1.359 19.263-2.129 31-1 11.737 1.129 26.012 4.157 38 5s21.69-.498 32 0c10.31.498 21.225 2.836 33 2 11.775-.836 24.408-4.845 35-6 10.592-1.155 19.143.544 30 0s24.02-3.332 35-2c10.98 1.332 19.776 6.782 31 7 11.224.218 24.877-4.798 37-7 12.123-2.202 22.718-1.59 33 0s20.253 4.158 31 5c10.747.842 22.272-.042 34 0 11.728.042 23.659 1.011 35 1 11.341-.011 22.092-1.003 33-1 10.908.003 21.974 1 33 1s22.013-1 73-2l-40 30H0Z" fill="url(#s)"/></svg>